<svg id="Layer_1" data-name="Layer 1" xmlns="http://www.w3.org/2000/svg"  viewBox="0 0 50.44 45">
  <defs>
    <style>
      .cls-1 {
        fill: #6b6b6b;
      }

      .cls-2 {
        fill: #76b79c;
      }

      .cls-3 {
        fill: #fff;
      }

      .cls-4 {
        fill: #e5d1aa;
      }
    </style>
  </defs>
  <title>bb-logo2</title>
  <g>
    <path class="cls-1" d="M57.94,99.44a.75.75,0,0,0-.75.78c0,1-.13,2-.15,3-.12,5.15-.22,10.31-.33,15.46a3.88,3.88,0,0,0,0,1.23,3.28,3.28,0,0,1-.05,1.89,3.68,3.68,0,0,1-1.75,2.09,3.41,3.41,0,0,1-2.35.72,1,1,0,0,0-.13.14,1.45,1.45,0,0,0,1,.22,4.15,4.15,0,0,0,3.71-3.37,17,17,0,0,0-.06-2.58c.1-1.67.11-3.35.14-5q.1-6.67.2-13.34c0-.35,0-.68.5-.76.21.21.14.44.13.66-.11,2.8,0,5.6-.14,8.39-.16,4.14,0,8.29-.34,12.43a4.76,4.76,0,0,1-4.09,4.23,5.45,5.45,0,0,1-6.17-5.14c0-5.13.17-10.27.25-15.4,0-1.63,0-3.26,0-4.89,0-.3-.06-.69.56-.54.06.92-.06,1.84-.07,2.75-.08,5.61-.14,11.23-.21,16.85a17.37,17.37,0,0,0,0,1.91,3.15,3.15,0,0,0,1.38,2.29c0-.22,0-.33,0-.39a4.39,4.39,0,0,1-.87-3c.09-6.49.2-13,.29-19.47a2.62,2.62,0,0,0-.23-1.4c-1.2-.25-1.49-.08-1.54,1.06-.09,2.13-.13,4.26-.19,6.39s0,4.54-.1,6.81c-.11,2.61-.19,5.23,0,7.83.17,3,3.35,5.76,7.06,5.14,2.43-.4,4.7-2.81,4.74-5.06.07-3.87.18-7.74.26-11.62q.11-4.8.18-9.62C58.86,99.48,58.66,99.35,57.94,99.44Z" transform="translate(-31.57 -86.85)"/>
    <path class="cls-2" d="M52.72,123.59h0A3.52,3.52,0,0,1,49,120.2l.26-19.31a.7.7,0,0,1,.73-.65h5.92a.69.69,0,0,1,.73.68l-.57,19.35C56.25,122.3,54.75,123.59,52.72,123.59Z" transform="translate(-31.57 -86.85)"/>
    <path class="cls-3" d="M56.17,100.33a28.73,28.73,0,0,1-3.82.26c-.15,3.12-.24,6.21-.48,9.28a87.8,87.8,0,0,1-.71,9.17c.07-6.13.19-12.26.67-18.37a2.16,2.16,0,0,0-1-.09,23.9,23.9,0,0,1-.48,5.47c-.2-1.83.25-3.66-.08-5.47-.32-.21-.71,0-1-.21C49.57,100,54.2,99.89,56.17,100.33Z" transform="translate(-31.57 -86.85)"/>
  </g>
  <path class="cls-2" d="M43.07,122.08a19.5,19.5,0,0,0-2.56,1A14.76,14.76,0,0,0,33,129a21.8,21.8,0,0,1-1.29,2.23.34.34,0,0,0,.06.57.72.72,0,0,0,.75,0c1.42-.62,3.1-.84,4.61-1.33,4.51-1.47,7.12-3.75,7.28-7.18a2.17,2.17,0,0,1,1-2l.11-.19V120c-.46.51-1,1-1.45,1.51A1.89,1.89,0,0,1,43.07,122.08Zm-10.53,9a15.5,15.5,0,0,1,10-8.27c-.68.67-1.3,1.31-2,1.93a21.45,21.45,0,0,0-2,2c2.07-1.06,3.35-2.59,5-3.87C43.46,127.68,38.6,129.73,32.54,131.07Zm4-15.91c-.24.18-.62.33-.4.63s.63.31,1,.31c.69,0,1.36,0,2,0a17.66,17.66,0,0,0,6.18-1v-.6a19.3,19.3,0,0,1-8.52,1.14,17.48,17.48,0,0,1,8.52-3.19v-.37A17.22,17.22,0,0,0,36.58,115.16Zm8.87-1.53v-.42c-.93.3-1.86.57-2.77.87A10,10,0,0,0,45.45,113.63Z" transform="translate(-31.57 -86.85)"/>
  <path class="cls-2" d="M82,90c-.12-.21-.38-.25-.67-.23-1.71.12-3.3-.2-5-.16-5.14.13-8.53,1.32-11.3,4.25a4.36,4.36,0,0,1-1.68,1.36A44.55,44.55,0,0,0,57,98.15c0-.55.26-1,.87-1.29a3,3,0,0,0,1.36-1.19,7.68,7.68,0,0,0-.16-7.27c-.26-.55-.68-.46-1.13-.07a15.89,15.89,0,0,0-1.53,1.54c-1.87,2-2.18,3.79-.91,6a7.71,7.71,0,0,1,.44.72,2.2,2.2,0,0,1-.56,2.73H57a30.46,30.46,0,0,1,7.2-3.75,3,3,0,0,1,1.25-.28,29.24,29.24,0,0,0,3-.15,25.23,25.23,0,0,0,10.64-3c.94-.51,1.66-1.12,2.65-1.6C81.9,90.43,82.09,90.22,82,90ZM56.72,96.28c-2.1-3-.94-5,1.7-7.68a4.75,4.75,0,0,1,.94,2,10.28,10.28,0,0,1,.18,2.88,4.46,4.46,0,0,1-2.19,3.11A11.13,11.13,0,0,0,57.42,93C57.19,94.08,57,95.18,56.72,96.28Zm9.6-1.53c1-.39,2-.78,3.05-1.15s2.09-.73,3.06-1.17a57.32,57.32,0,0,0-7.06,2c3.87-4,8.62-4.57,15.39-4.09A26.91,26.91,0,0,1,66.32,94.75Z" transform="translate(-31.57 -86.85)"/>
  <g>
    <path class="cls-4" d="M67.3,88.6c-1.63.27-1.91.48-2.25,1.75-.34-1.27-.61-1.48-2.24-1.75,1.63-.26,1.9-.48,2.24-1.75C65.39,88.12,65.67,88.34,67.3,88.6Z" transform="translate(-31.57 -86.85)"/>
    <path class="cls-4" d="M49.93,94.67c-1.24.2-1.45.36-1.71,1.33-.25-1-.46-1.13-1.7-1.33,1.24-.2,1.45-.37,1.7-1.33C48.48,94.3,48.69,94.47,49.93,94.67Z" transform="translate(-31.57 -86.85)"/>
  </g>
  <path class="cls-4" d="M40.77,119.83c-1.63.27-1.91.48-2.25,1.75-.34-1.27-.61-1.48-2.24-1.75,1.63-.26,1.9-.48,2.24-1.75C38.86,119.35,39.14,119.57,40.77,119.83Z" transform="translate(-31.57 -86.85)"/>
</svg>
